<svg width="11" height="7" viewBox="0 0 11 7" fill="none" xmlns="http://www.w3.org/2000/svg">
<path d="M5.56139 6.83839L1.06139 2.33839C1.00984 2.28685 0.968941 2.22566 0.94104 2.15832C0.913138 2.09097 0.898777 2.01878 0.898777 1.94588C0.898777 1.87299 0.913138 1.80081 0.94104 1.73347C0.968941 1.66612 1.00984 1.60494 1.06139 1.5534L1.58539 1.0294C1.68944 0.925584 1.83041 0.867286 1.97739 0.867286C2.12437 0.867286 2.26534 0.925584 2.36939 1.0294L5.94939 4.59239L9.52939 1.02839C9.63344 0.924578 9.77441 0.866279 9.92139 0.86628C10.0684 0.86628 10.2093 0.924578 10.3134 1.02839L10.8374 1.55239C10.8889 1.60393 10.9298 1.66511 10.9577 1.73246C10.9856 1.79981 11 1.872 11 1.94489C11 2.01779 10.9856 2.08996 10.9577 2.15731C10.9298 2.22466 10.8889 2.28586 10.8374 2.33739L6.33739 6.83739C6.28585 6.88895 6.22466 6.92984 6.15731 6.95774C6.08997 6.98564 6.01779 7 5.94489 7C5.87199 7 5.79981 6.98564 5.73246 6.95774C5.66512 6.92984 5.60393 6.88895 5.55239 6.83739L5.56139 6.83839Z" fill="#C2CFE0"/>
</svg>
